<svg width="187" height="35" viewBox="0 0 187 35" fill="none" xmlns="http://www.w3.org/2000/svg">
<path d="M23.5 2.764H16.552C16.408 2.764 16.3 2.872 16.264 2.98L12.484 17.452C12.412 17.74 11.98 17.74 11.908 17.452L8.128 2.98C8.092 2.872 7.984 2.764 7.84 2.764H0.892C0.676 2.764 0.532 2.98 0.604 3.16L8.92 27.856C8.956 27.964 9.1 28.036 9.208 28.036H15.184C15.292 28.036 15.436 27.964 15.472 27.856L23.788 3.16C23.86 2.98 23.716 2.764 23.5 2.764ZM45.5843 27.712L36.3323 3.088C36.2603 2.944 36.1163 2.836 35.9723 2.836H30.5363C30.3563 2.836 30.2123 2.944 30.1403 3.124L20.8883 27.676C20.8163 27.892 20.9603 28.108 21.1763 28.108H27.4763C27.5843 28.108 27.7283 28.036 27.7643 27.892L29.0963 23.86C29.1323 23.752 29.2403 23.644 29.3843 23.644H37.0883C37.2323 23.644 37.3403 23.752 37.3763 23.86L38.7083 27.856C38.7443 28 38.8883 28.108 39.0683 28.108H45.2963C45.5123 28.108 45.6563 27.892 45.5843 27.712ZM35.1803 18.496H31.2923C31.0763 18.496 30.9323 18.28 31.0043 18.1L32.9483 12.196C33.0203 11.908 33.4523 11.908 33.5603 12.196L35.4683 18.064C35.5403 18.28 35.3963 18.496 35.1803 18.496ZM60.6346 19.288C60.5986 19.144 60.6346 19 60.7786 18.928C61.2106 18.676 61.6066 18.352 62.0746 17.956C63.6226 16.588 64.7026 13.924 64.7026 11.332C64.7026 8.632 63.6226 6.184 61.7866 4.6C60.4186 3.484 58.6906 2.764 54.1906 2.764H46.4146C46.2346 2.764 46.1266 2.908 46.1266 3.088V27.676C46.1266 27.856 46.2346 27.964 46.4146 27.964H52.2106C52.3906 27.964 52.5346 27.856 52.5346 27.676V20.44C52.5346 20.26 52.6786 20.152 52.8226 20.152H53.8306C53.9746 20.152 54.0826 20.224 54.1186 20.332L57.4306 27.856C57.4666 28 57.5746 28.072 57.6826 28.072H64.0186C64.2346 28.072 64.3786 27.82 64.2706 27.64L60.6346 19.288ZM57.1066 13.96C56.2786 14.32 55.3066 14.32 54.7306 14.32H52.8226C52.6786 14.32 52.5346 14.212 52.5346 14.032V8.884C52.5346 8.704 52.6786 8.56 52.8226 8.56H54.4786C55.1626 8.56 56.2066 8.56 57.0346 8.956C58.0426 9.388 58.5466 10.18 58.5466 11.404C58.5466 12.304 58.2946 13.42 57.1066 13.96ZM83.6602 2.8H77.4682C77.3242 2.8 77.2162 2.872 77.1802 2.98L73.9402 10.612C73.8322 10.864 73.4722 10.864 73.3642 10.612L70.1602 2.98C70.1242 2.872 70.0162 2.8 69.8722 2.8H63.6082C63.3922 2.8 63.2482 3.052 63.3202 3.232L70.4482 17.848C70.4482 17.884 70.4482 17.92 70.4482 17.992V27.712C70.4482 27.892 70.5922 28 70.7722 28H76.5682C76.7482 28 76.8922 27.892 76.8922 27.712V17.992C76.8922 17.92 76.8922 17.884 76.9282 17.848L83.9482 3.232C84.0562 3.052 83.9122 2.8 83.6602 2.8ZM98.0557 3.844C96.8677 3.34 95.3197 2.836 92.0437 2.836H84.6997C84.5197 2.836 84.4117 2.98 84.4117 3.16V27.784C84.4117 27.928 84.5197 28.072 84.6997 28.072H92.2237C96.0037 28.072 97.1917 27.532 98.5237 26.848C100.576 25.84 102.34 24.256 103.6 22.276C104.86 20.26 105.544 17.884 105.544 15.472C105.544 10.432 102.628 5.86 98.0557 3.844ZM97.4437 20.26C96.2917 21.448 93.8797 22.204 91.2157 22.204H90.8557C90.6757 22.204 90.5317 22.06 90.5317 21.88V8.992C90.5317 8.812 90.6757 8.668 90.8557 8.668C92.4037 8.632 99.1717 8.884 99.2077 15.436C99.2077 17.416 98.5957 19.072 97.4437 20.26ZM121.104 22.276H113.292C113.112 22.276 112.968 22.132 112.968 21.952V18.496C112.968 18.316 113.112 18.172 113.256 18.172H118.98C119.16 18.172 119.304 18.028 119.304 17.848V12.7C119.304 12.52 119.16 12.376 118.98 12.376H113.292C113.112 12.376 112.968 12.232 112.968 12.088V8.992C112.968 8.812 113.112 8.668 113.292 8.668H121.104C121.284 8.668 121.464 8.524 121.428 8.308L120.924 3.16C120.888 3.016 120.78 2.872 120.6 2.872H106.848C106.668 2.872 106.56 3.016 106.56 3.196V27.748C106.56 27.928 106.704 28.072 106.884 28.072H120.6C120.78 28.072 120.888 27.964 120.924 27.82L121.428 22.636C121.464 22.456 121.32 22.276 121.104 22.276ZM137.171 22.276H129.359C129.179 22.276 129.035 22.132 129.035 21.952V18.496C129.035 18.316 129.179 18.172 129.323 18.172H135.047C135.227 18.172 135.371 18.028 135.371 17.848V12.7C135.371 12.52 135.227 12.376 135.047 12.376H129.359C129.179 12.376 129.035 12.232 129.035 12.088V8.992C129.035 8.812 129.179 8.668 129.359 8.668H137.171C137.351 8.668 137.531 8.524 137.495 8.308L136.991 3.16C136.955 3.016 136.847 2.872 136.667 2.872H122.915C122.735 2.872 122.627 3.016 122.627 3.196V27.748C122.627 27.928 122.771 28.072 122.951 28.072H136.667C136.847 28.072 136.955 27.964 136.991 27.82L137.495 22.636C137.531 22.456 137.387 22.276 137.171 22.276ZM159.177 2.8H153.633C153.453 2.8 153.309 2.944 153.309 3.124L153.417 15.688C153.453 15.976 153.057 16.084 152.877 15.832L144.273 2.944C144.237 2.872 144.129 2.8 144.021 2.8H138.981C138.801 2.8 138.693 2.944 138.693 3.124V27.712C138.693 27.892 138.801 28 138.981 28H144.525C144.705 28 144.813 27.892 144.813 27.712L144.705 16.084C144.705 15.796 145.101 15.652 145.245 15.904L153.813 27.892C153.885 27.964 153.957 28 154.065 28H159.177C159.321 28 159.465 27.892 159.465 27.712V3.124C159.465 2.944 159.321 2.8 159.177 2.8Z" fill="#F5F5F5"/>
<path d="M184.525 3H167C165.895 3 165 3.89543 165 5V26.1928C165 27.5926 166.401 28.5593 167.71 28.0627L185.235 21.4125C186.011 21.1177 186.525 20.3734 186.525 19.5426V5C186.525 3.89543 185.63 3 184.525 3Z" fill="#F5F5F5"/>
</svg>
