<svg width="74" height="60" viewBox="0 0 74 60" fill="none" xmlns="http://www.w3.org/2000/svg">
<path fill-rule="evenodd" clip-rule="evenodd" d="M14.439 5.45455C14.439 8.46701 16.8632 10.9091 19.8537 10.9091C21.3489 10.9091 22.561 12.1301 22.561 13.6364C22.561 15.1426 21.3489 16.3636 19.8537 16.3636C16.8632 16.3636 14.439 18.8057 14.439 21.8182C14.439 24.8306 16.8632 27.2727 19.8537 27.2727C21.3489 27.2727 22.561 28.4938 22.561 30C22.561 31.5062 21.3489 32.7273 19.8537 32.7273C16.8632 32.7273 14.439 35.1694 14.439 38.1818C14.439 41.1943 16.8632 43.6364 19.8537 43.6364C21.3489 43.6364 22.561 44.8574 22.561 46.3636C22.561 47.8699 21.3489 49.0909 19.8537 49.0909C16.8632 49.0909 14.439 51.533 14.439 54.5455C14.439 57.5579 16.8632 60 19.8537 60C20.0713 60 20.2859 59.9871 20.4968 59.9619C20.5789 59.9867 20.666 60 20.7561 60H73.0976C73.596 60 74 59.593 74 59.0909V0.909091C74 0.407014 73.596 0 73.0976 0H20.7561C20.666 0 20.5789 0.0133077 20.4968 0.0380788C20.2859 0.0129334 20.0713 0 19.8537 0C16.8632 0 14.439 2.44208 14.439 5.45455ZM11.7317 18.1818C14.2237 18.1818 16.2439 16.1467 16.2439 13.6364C16.2439 11.126 14.2237 9.09091 11.7317 9.09091C9.23969 9.09091 7.21951 11.126 7.21951 13.6364C7.21951 16.1467 9.23969 18.1818 11.7317 18.1818ZM11.7317 34.5455C14.2237 34.5455 16.2439 32.5104 16.2439 30C16.2439 27.4896 14.2237 25.4545 11.7317 25.4545C9.23969 25.4545 7.21951 27.4896 7.21951 30C7.21951 32.5104 9.23969 34.5455 11.7317 34.5455ZM11.7317 50.9091C14.2237 50.9091 16.2439 48.874 16.2439 46.3636C16.2439 43.8532 14.2237 41.8182 11.7317 41.8182C9.23969 41.8182 7.21951 43.8532 7.21951 46.3636C7.21951 48.874 9.23969 50.9091 11.7317 50.9091ZM3.60976 41.8182C5.60337 41.8182 7.21951 40.1901 7.21951 38.1818C7.21951 36.1735 5.60337 34.5455 3.60976 34.5455C1.61614 34.5455 0 36.1735 0 38.1818C0 40.1901 1.61614 41.8182 3.60976 41.8182ZM7.21951 21.8182C7.21951 23.8265 5.60337 25.4545 3.60976 25.4545C1.61614 25.4545 0 23.8265 0 21.8182C0 19.8099 1.61614 18.1818 3.60976 18.1818C5.60337 18.1818 7.21951 19.8099 7.21951 21.8182ZM3.60976 9.09091C5.60337 9.09091 7.21951 7.46285 7.21951 5.45455C7.21951 3.44624 5.60337 1.81818 3.60976 1.81818C1.61614 1.81818 0 3.44624 0 5.45455C0 7.46285 1.61614 9.09091 3.60976 9.09091ZM7.21951 54.5455C7.21951 56.5538 5.60337 58.1818 3.60976 58.1818C1.61614 58.1818 0 56.5538 0 54.5455C0 52.5371 1.61614 50.9091 3.60976 50.9091C5.60337 50.9091 7.21951 52.5371 7.21951 54.5455ZM36.0976 7.27273C37.0944 7.27273 37.9024 6.4587 37.9024 5.45455C37.9024 4.45039 37.0944 3.63636 36.0976 3.63636C35.1008 3.63636 34.2927 4.45039 34.2927 5.45455C34.2927 6.4587 35.1008 7.27273 36.0976 7.27273ZM31.5854 13.6364C31.5854 15.1426 30.3733 16.3636 28.878 16.3636C27.3828 16.3636 26.1707 15.1426 26.1707 13.6364C26.1707 12.1301 27.3828 10.9091 28.878 10.9091C30.3733 10.9091 31.5854 12.1301 31.5854 13.6364ZM36.0976 23.6364C37.0944 23.6364 37.9024 22.8223 37.9024 21.8182C37.9024 20.814 37.0944 20 36.0976 20C35.1008 20 34.2927 20.814 34.2927 21.8182C34.2927 22.8223 35.1008 23.6364 36.0976 23.6364ZM31.5854 30C31.5854 31.5062 30.3733 32.7273 28.878 32.7273C27.3828 32.7273 26.1707 31.5062 26.1707 30C26.1707 28.4938 27.3828 27.2727 28.878 27.2727C30.3733 27.2727 31.5854 28.4938 31.5854 30ZM37.9024 38.1818C37.9024 39.186 37.0944 40 36.0976 40C35.1008 40 34.2927 39.186 34.2927 38.1818C34.2927 37.1777 35.1008 36.3636 36.0976 36.3636C37.0944 36.3636 37.9024 37.1777 37.9024 38.1818ZM31.5854 46.3636C31.5854 47.8699 30.3733 49.0909 28.878 49.0909C27.3828 49.0909 26.1707 47.8699 26.1707 46.3636C26.1707 44.8574 27.3828 43.6364 28.878 43.6364C30.3733 43.6364 31.5854 44.8574 31.5854 46.3636ZM36.0976 56.3636C37.0944 56.3636 37.9024 55.5496 37.9024 54.5455C37.9024 53.5413 37.0944 52.7273 36.0976 52.7273C35.1008 52.7273 34.2927 53.5413 34.2927 54.5455C34.2927 55.5496 35.1008 56.3636 36.0976 56.3636Z" fill="#92979E"/>
</svg>
