<svg width="184" height="14" viewBox="0 0 184 14" fill="none" xmlns="http://www.w3.org/2000/svg">
<path d="M28.2775 0.379198H25.0542C24.9541 0.379198 24.874 0.455038 24.874 0.530877V5.23293C24.874 5.32773 24.7939 5.40357 24.6938 5.40357H20.7097C20.6096 5.40357 20.5295 5.32773 20.5295 5.23293V0.530877C20.5295 0.455038 20.4494 0.379198 20.3493 0.379198H17.126C17.0259 0.379198 16.9658 0.455038 16.9658 0.530877V13.4805C16.9658 13.5753 17.0259 13.6511 17.126 13.6511H20.3493C20.4494 13.6511 20.5295 13.5753 20.5295 13.4805V8.60779C20.5295 8.51299 20.6096 8.43715 20.7097 8.43715H24.6938C24.7939 8.43715 24.874 8.51299 24.874 8.60779V13.4805C24.874 13.5753 24.9541 13.6511 25.0542 13.6511H28.2775C28.3576 13.6511 28.4377 13.5753 28.4377 13.4805V0.530877C28.4377 0.455038 28.3576 0.379198 28.2775 0.379198Z" fill="#E8E8E8"/>
<path d="M42.4527 13.4615L37.3074 0.492957C37.2673 0.417118 37.1872 0.360238 37.1071 0.360238H34.084C33.9839 0.360238 33.9038 0.417118 33.8638 0.511917L28.7185 13.4426C28.6784 13.5563 28.7585 13.6701 28.8786 13.6701H32.3823C32.4423 13.6701 32.5224 13.6322 32.5424 13.5563L33.2832 11.4328C33.3032 11.3759 33.3633 11.3191 33.4434 11.3191H37.7278C37.8079 11.3191 37.8679 11.3759 37.888 11.4328L38.6287 13.5374C38.6487 13.6132 38.7288 13.6701 38.8289 13.6701H42.2925C42.4126 13.6701 42.4927 13.5563 42.4527 13.4615ZM36.6667 8.60779H34.5045C34.3843 8.60779 34.3042 8.49403 34.3443 8.39923L35.4254 5.28981C35.4654 5.13813 35.7057 5.13813 35.7658 5.28981L36.8269 8.38027C36.8669 8.49403 36.7868 8.60779 36.6667 8.60779Z" fill="#E8E8E8"/>
<path d="M50.8226 10.5607H46.4781C46.398 10.5607 46.3179 10.5038 46.3179 10.409V0.492957C46.3179 0.417118 46.2379 0.341278 46.1377 0.341278H42.9144C42.8143 0.341278 42.7542 0.417118 42.7542 0.492957V13.4615C42.7542 13.5563 42.8143 13.6322 42.9144 13.6322H50.5223C50.6024 13.6322 50.6825 13.5563 50.7025 13.4805L51.0028 10.7503C51.0028 10.6555 50.9227 10.5607 50.8226 10.5607Z" fill="#E8E8E8"/>
<path d="M59.0453 0.530877C59.0453 0.436077 58.9653 0.379198 58.8652 0.379198H51.4975C51.3974 0.379198 51.3374 0.455038 51.3374 0.530877V13.4805C51.3374 13.5753 51.3974 13.6511 51.4975 13.6511H54.7209C54.821 13.6511 54.901 13.5753 54.901 13.4805V8.62675C54.901 8.53195 54.9811 8.45611 55.0812 8.45611H58.0243C58.1244 8.45611 58.2045 8.38027 58.2045 8.30443L58.2245 5.57421C58.2245 5.47941 58.1444 5.40357 58.0643 5.40357H55.0812C54.9811 5.40357 54.901 5.32773 54.901 5.25189V3.60238C54.901 3.50758 54.9811 3.43174 55.0812 3.43174H59.1254C59.2255 3.43174 59.3056 3.33694 59.3056 3.24214L59.0453 0.530877Z" fill="#E8E8E8"/>
<path d="M68.1728 0.341278H59.2635C59.1634 0.341278 59.1034 0.417118 59.1034 0.492957V3.24214C59.1034 3.31798 59.1634 3.39382 59.2635 3.39382H61.7861C61.8662 3.39382 61.9463 3.46966 61.9463 3.56446V13.4615C61.9463 13.5563 62.0264 13.6322 62.1065 13.6322H65.3498C65.4299 13.6322 65.51 13.5563 65.51 13.4615V3.56446C65.51 3.46966 65.5901 3.39382 65.6902 3.39382H68.1728C68.2729 3.39382 68.3529 3.31798 68.3529 3.24214V0.492957C68.3529 0.417118 68.2729 0.341278 68.1728 0.341278Z" fill="#E8E8E8"/>
<path d="M75.2892 0C71.3251 0 68.1017 3.12838 68.1017 6.97724C68.1017 10.8261 71.3251 13.9545 75.2892 13.9545C79.2733 13.9545 82.4967 10.8261 82.4967 6.97724C82.4967 3.12838 79.2733 0 75.2892 0ZM75.2892 10.7882C73.127 10.7882 71.3451 9.08179 71.3451 6.97724C71.3451 4.87269 73.127 3.1663 75.2892 3.1663C77.4715 3.1663 79.2333 4.87269 79.2333 6.97724C79.2333 9.08179 77.4715 10.7882 75.2892 10.7882Z" fill="#E8E8E8"/>
<path d="M94.4417 0.341278H91.3585C91.2584 0.341278 91.1783 0.417118 91.1783 0.511917L91.2384 7.12892C91.2584 7.2806 91.0382 7.33748 90.938 7.20476L86.1531 0.417118C86.1331 0.379198 86.073 0.341278 86.013 0.341278H83.21C83.1099 0.341278 83.0499 0.417118 83.0499 0.511917V13.4615C83.0499 13.5563 83.1099 13.6132 83.21 13.6132H86.2932C86.3933 13.6132 86.4534 13.5563 86.4534 13.4615L86.3933 7.33748C86.3933 7.1858 86.6136 7.10996 86.6937 7.24268L91.4586 13.5563C91.4986 13.5942 91.5387 13.6132 91.5987 13.6132H94.4417C94.5218 13.6132 94.6018 13.5563 94.6018 13.4615V0.511917C94.6018 0.417118 94.5218 0.341278 94.4417 0.341278Z" fill="#E8E8E8"/>
<path d="M103.71 10.5986H99.3654C99.2653 10.5986 99.1852 10.5227 99.1852 10.4279V8.60779C99.1852 8.51299 99.2653 8.43715 99.3454 8.43715H102.529C102.629 8.43715 102.709 8.36131 102.709 8.26651V5.55525C102.709 5.46045 102.629 5.38461 102.529 5.38461H99.3654C99.2653 5.38461 99.1852 5.30877 99.1852 5.23293V3.60238C99.1852 3.50758 99.2653 3.43174 99.3654 3.43174H103.71C103.81 3.43174 103.91 3.3559 103.89 3.24214L103.61 0.530877C103.59 0.455038 103.53 0.379198 103.43 0.379198H95.7817C95.6816 0.379198 95.6215 0.455038 95.6215 0.549837V13.4805C95.6215 13.5753 95.7016 13.6511 95.8017 13.6511H103.43C103.53 13.6511 103.59 13.5942 103.61 13.5184L103.89 10.7882C103.91 10.6934 103.83 10.5986 103.71 10.5986Z" fill="#E8E8E8"/>
<path d="M116.061 1.32719C115.301 0.720476 114.34 0.341278 111.837 0.341278H107.513C107.412 0.341278 107.352 0.417118 107.352 0.511917V13.4615C107.352 13.5563 107.412 13.6132 107.513 13.6132H110.736C110.836 13.6132 110.916 13.5563 110.916 13.4615V9.65058C110.916 9.55578 110.996 9.4989 111.076 9.4989H112.217C114.4 9.4989 115.301 9.08179 116.222 8.34235C117.082 7.62187 117.683 6.21884 117.683 4.85373C117.683 3.43174 117.082 2.14247 116.061 1.32719ZM113.459 6.2378C112.998 6.4274 112.458 6.4274 112.137 6.4274H111.076C110.996 6.4274 110.916 6.37052 110.916 6.27572V3.56446C110.916 3.46966 110.996 3.39382 111.076 3.39382H111.997C112.378 3.39382 112.958 3.39382 113.419 3.60238C113.979 3.8299 114.26 4.24701 114.26 4.89165C114.26 5.36565 114.119 5.97236 113.459 6.2378Z" fill="#E8E8E8"/>
<path d="M126.252 9.02491C126.232 8.94907 126.252 8.87323 126.332 8.83531C126.573 8.70259 126.793 8.53195 127.053 8.32339C127.914 7.60291 128.515 6.19988 128.515 4.83477C128.515 3.41278 127.914 2.12351 126.893 1.28927C126.132 0.701516 125.171 0.322318 122.669 0.322318H118.344C118.244 0.322318 118.184 0.398158 118.184 0.492957V13.4426C118.184 13.5374 118.244 13.5942 118.344 13.5942H121.567C121.668 13.5942 121.748 13.5374 121.748 13.4426V9.63162C121.748 9.53682 121.828 9.47994 121.908 9.47994H122.468C122.548 9.47994 122.609 9.51786 122.629 9.57474L124.47 13.5374C124.49 13.6132 124.551 13.6511 124.611 13.6511H128.134C128.254 13.6511 128.334 13.5184 128.274 13.4236L126.252 9.02491ZM124.29 6.21884C123.83 6.40844 123.289 6.40844 122.969 6.40844H121.908C121.828 6.40844 121.748 6.35156 121.748 6.25676V3.5455C121.748 3.4507 121.828 3.37486 121.908 3.37486H122.829C123.209 3.37486 123.79 3.37486 124.25 3.58342C124.811 3.81094 125.091 4.22805 125.091 4.87269C125.091 5.34669 124.951 5.93444 124.29 6.21884Z" fill="#E8E8E8"/>
<path d="M135.86 0C131.896 0 128.672 3.12838 128.672 6.97724C128.672 10.8261 131.896 13.9545 135.86 13.9545C139.844 13.9545 143.067 10.8261 143.067 6.97724C143.067 3.12838 139.844 0 135.86 0ZM135.86 10.7882C133.697 10.7882 131.916 9.08179 131.916 6.97724C131.916 4.87269 133.697 3.1663 135.86 3.1663C138.042 3.1663 139.804 4.87269 139.804 6.97724C139.804 9.08179 138.042 10.7882 135.86 10.7882Z" fill="#E8E8E8"/>
<path d="M152.99 0.341278H149.927C149.847 0.341278 149.767 0.417118 149.767 0.492957V8.28547C149.767 8.79739 149.767 9.42306 149.547 9.91602C149.306 10.4659 148.826 10.7313 148.085 10.7313C147.364 10.7313 146.884 10.4469 146.604 9.85914V9.84018C146.443 9.4989 146.403 9.10075 146.383 8.75947C146.363 8.66467 146.303 8.60779 146.203 8.60779H143.14C143.04 8.60779 142.96 8.68363 142.98 8.75947C143 10.2952 143.26 11.2053 144.341 12.3618C145.562 13.6322 147.344 13.7649 148.125 13.7649C149.707 13.7649 150.828 13.2909 151.789 12.3429C152.63 11.5086 153.15 10.5417 153.15 8.28547V0.511917C153.15 0.417118 153.09 0.341278 152.99 0.341278Z" fill="#E8E8E8"/>
<path d="M162.11 10.5986H157.766C157.666 10.5986 157.585 10.5227 157.585 10.4279V8.60779C157.585 8.51299 157.666 8.43715 157.746 8.43715H160.929C161.029 8.43715 161.109 8.36131 161.109 8.26651V5.55525C161.109 5.46045 161.029 5.38461 160.929 5.38461H157.766C157.666 5.38461 157.585 5.30877 157.585 5.23293V3.60238C157.585 3.50758 157.666 3.43174 157.766 3.43174H162.11C162.21 3.43174 162.31 3.3559 162.29 3.24214L162.01 0.530877C161.99 0.455038 161.93 0.379198 161.83 0.379198H154.182C154.082 0.379198 154.022 0.455038 154.022 0.549837V13.4805C154.022 13.5753 154.102 13.6511 154.202 13.6511H161.83C161.93 13.6511 161.99 13.5942 162.01 13.5184L162.29 10.7882C162.31 10.6934 162.23 10.5986 162.11 10.5986Z" fill="#E8E8E8"/>
<path d="M174.9 11.0536L172.537 9.4041C172.457 9.36618 172.357 9.36618 172.297 9.44202C171.556 10.3142 170.435 10.8261 169.254 10.8261C167.091 10.8261 165.31 9.1197 165.31 7.01516C165.31 4.91061 167.091 3.20422 169.254 3.20422C170.415 3.20422 171.476 3.65926 172.217 4.49349C172.277 4.56933 172.377 4.56933 172.457 4.51245L174.839 2.86294C174.92 2.80606 174.94 2.71126 174.88 2.63542C174.239 1.87703 173.458 1.25135 172.577 0.815276C171.536 0.284399 170.435 0.0379204 169.254 0.0379204C165.29 0.0379204 162.066 3.1663 162.066 7.01516C162.066 10.864 165.29 13.9924 169.254 13.9924C171.476 13.9924 173.578 12.9875 174.94 11.3001C175 11.2243 174.98 11.1105 174.9 11.0536Z" fill="#E8E8E8"/>
<path d="M183.82 0.341278H174.911C174.811 0.341278 174.75 0.417118 174.75 0.492957V3.24214C174.75 3.31798 174.811 3.39382 174.911 3.39382H177.433C177.513 3.39382 177.593 3.46966 177.593 3.56446V13.4615C177.593 13.5563 177.673 13.6322 177.754 13.6322H180.997C181.077 13.6322 181.157 13.5563 181.157 13.4615V3.56446C181.157 3.46966 181.237 3.39382 181.337 3.39382H183.82C183.92 3.39382 184 3.31798 184 3.24214V0.492957C184 0.417118 183.92 0.341278 183.82 0.341278Z" fill="#E8E8E8"/>
<path fill-rule="evenodd" clip-rule="evenodd" d="M3.13976 1.55829C3.13976 2.22569 3.6669 2.76672 4.31717 2.76672C4.6423 2.76672 4.90587 3.03724 4.90587 3.37094C4.90587 3.70464 4.6423 3.97516 4.31717 3.97516C3.6669 3.97516 3.13976 4.51619 3.13976 5.18359C3.13976 5.85099 3.6669 6.39202 4.31717 6.39202C4.6423 6.39202 4.90587 6.66254 4.90587 6.99624C4.90587 7.32994 4.6423 7.60046 4.31717 7.60046C3.6669 7.60046 3.13976 8.14149 3.13976 8.80889C3.13976 9.47629 3.6669 10.0173 4.31717 10.0173C4.6423 10.0173 4.90587 10.2878 4.90587 10.6215C4.90587 10.9552 4.6423 11.2258 4.31717 11.2258C3.6669 11.2258 3.13976 11.7668 3.13976 12.4342C3.13976 13.1016 3.6669 13.6426 4.31717 13.6426C4.36449 13.6426 4.41115 13.6398 4.45702 13.6342C4.47488 13.6397 4.4938 13.6426 4.5134 13.6426H15.895C16.0034 13.6426 16.0913 13.5525 16.0913 13.4412V0.551259C16.0913 0.440026 16.0034 0.349854 15.895 0.349854H4.5134C4.4938 0.349854 4.47488 0.352802 4.45702 0.35829C4.41116 0.352719 4.36449 0.349854 4.31717 0.349854C3.6669 0.349854 3.13976 0.890888 3.13976 1.55829ZM2.55105 4.37797C3.09294 4.37797 3.53223 3.92711 3.53223 3.37094C3.53223 2.81477 3.09294 2.36391 2.55105 2.36391C2.00917 2.36391 1.56988 2.81477 1.56988 3.37094C1.56988 3.92711 2.00917 4.37797 2.55105 4.37797ZM2.55105 8.00327C3.09294 8.00327 3.53223 7.55241 3.53223 6.99624C3.53223 6.44008 3.09294 5.98921 2.55105 5.98921C2.00917 5.98921 1.56988 6.44008 1.56988 6.99624C1.56988 7.55241 2.00917 8.00327 2.55105 8.00327ZM2.55105 11.6286C3.09294 11.6286 3.53223 11.1777 3.53223 10.6215C3.53223 10.0654 3.09294 9.61452 2.55105 9.61452C2.00917 9.61452 1.56988 10.0654 1.56988 10.6215C1.56988 11.1777 2.00917 11.6286 2.55105 11.6286ZM0.784939 9.61452C1.21845 9.61452 1.56988 9.25383 1.56988 8.80889C1.56988 8.36396 1.21845 8.00327 0.784939 8.00327C0.351429 8.00327 0 8.36396 0 8.80889C0 9.25383 0.351429 9.61452 0.784939 9.61452ZM1.56988 5.18359C1.56988 5.62852 1.21845 5.98921 0.784939 5.98921C0.351429 5.98921 0 5.62852 0 5.18359C0 4.73866 0.351429 4.37797 0.784939 4.37797C1.21845 4.37797 1.56988 4.73866 1.56988 5.18359ZM0.784939 2.36391C1.21845 2.36391 1.56988 2.00322 1.56988 1.55829C1.56988 1.11335 1.21845 0.752665 0.784939 0.752665C0.351429 0.752665 0 1.11335 0 1.55829C0 2.00322 0.351429 2.36391 0.784939 2.36391ZM1.56988 12.4342C1.56988 12.8791 1.21845 13.2398 0.784939 13.2398C0.351429 13.2398 0 12.8791 0 12.4342C0 11.9893 0.351429 11.6286 0.784939 11.6286C1.21845 11.6286 1.56988 11.9893 1.56988 12.4342ZM7.84939 1.9611C8.06615 1.9611 8.24186 1.78075 8.24186 1.55829C8.24186 1.33582 8.06615 1.15548 7.84939 1.15548C7.63264 1.15548 7.45692 1.33582 7.45692 1.55829C7.45692 1.78075 7.63264 1.9611 7.84939 1.9611ZM6.86822 3.37094C6.86822 3.70464 6.60465 3.97516 6.27951 3.97516C5.95438 3.97516 5.69081 3.70464 5.69081 3.37094C5.69081 3.03724 5.95438 2.76672 6.27951 2.76672C6.60465 2.76672 6.86822 3.03724 6.86822 3.37094ZM7.84939 5.5864C8.06615 5.5864 8.24186 5.40606 8.24186 5.18359C8.24186 4.96112 8.06615 4.78078 7.84939 4.78078C7.63264 4.78078 7.45692 4.96112 7.45692 5.18359C7.45692 5.40606 7.63264 5.5864 7.84939 5.5864ZM6.86822 6.99624C6.86822 7.32994 6.60465 7.60046 6.27951 7.60046C5.95438 7.60046 5.69081 7.32994 5.69081 6.99624C5.69081 6.66254 5.95438 6.39202 6.27951 6.39202C6.60465 6.39202 6.86822 6.66254 6.86822 6.99624ZM8.24186 8.80889C8.24186 9.03136 8.06615 9.2117 7.84939 9.2117C7.63264 9.2117 7.45692 9.03136 7.45692 8.80889C7.45692 8.58643 7.63264 8.40608 7.84939 8.40608C8.06615 8.40608 8.24186 8.58643 8.24186 8.80889ZM6.86822 10.6215C6.86822 10.9552 6.60465 11.2258 6.27951 11.2258C5.95438 11.2258 5.69081 10.9552 5.69081 10.6215C5.69081 10.2878 5.95438 10.0173 6.27951 10.0173C6.60465 10.0173 6.86822 10.2878 6.86822 10.6215ZM7.84939 12.837C8.06615 12.837 8.24186 12.6567 8.24186 12.4342C8.24186 12.2117 8.06615 12.0314 7.84939 12.0314C7.63264 12.0314 7.45692 12.2117 7.45692 12.4342C7.45692 12.6567 7.63264 12.837 7.84939 12.837Z" fill="#E8E8E8"/>
</svg>
