<svg width="119" height="49" viewBox="0 0 119 49" fill="none" xmlns="http://www.w3.org/2000/svg">
<path d="M0 32.1596C0 44.3581 9.89648 48.5605 16.2419 48.5605C22.9948 48.5605 32.1344 44.183 32.1344 32.1596V20.1362C32.1344 7.35404 21.7723 3.73535 16.2419 3.73535C10.0711 3.73535 0 7.64587 0 20.1362V32.1596ZM11.0026 19.8444C11.0026 17.5097 11.7011 13.4241 16.0672 13.4241C21.1319 13.4241 21.1319 18.502 21.1319 19.8444V32.4514C21.1319 33.7355 21.1319 38.8717 16.0672 38.8717C11.8176 38.8717 11.0026 35.0195 11.0026 32.4514V19.8444Z" fill="#F5F5F5"/>
<path d="M58.1659 4.55248H40.1194V13.8327H47.1634V47.7433H58.1659V4.55248Z" fill="#F5F5F5"/>
<path fill-rule="evenodd" clip-rule="evenodd" d="M84.9191 4.2688H73.1074V15.9364L84.9191 4.2688ZM113.964 47.493H101.83L116.865 32.6413V44.6272L113.964 47.493Z" fill="#F5F5F5"/>
<path fill-rule="evenodd" clip-rule="evenodd" d="M109.263 10.0307C107.645 8.31944 104.963 8.29368 103.314 9.97357L90.9087 22.6084L91.7129 15.6161L84.8477 16.4352L97.2528 3.80034C102.294 -1.33451 110.492 -1.25574 115.437 3.97505C120.252 9.06813 120.178 17.1503 115.269 22.15L111.533 25.9546L115.241 29.7305L99.5193 32.0179L101.765 16.0055L105.472 19.7814L109.208 15.9768C110.814 14.3411 110.838 11.697 109.263 10.0307Z" fill="#F5F5F5"/>
<path fill-rule="evenodd" clip-rule="evenodd" d="M80.7102 38.5298C82.3282 40.2411 85.01 40.2669 86.6593 38.587L99.0645 25.9522L98.2602 32.9445L105.125 32.1254L92.7203 44.7602C87.6788 49.8951 79.4814 49.8163 74.5359 44.5855C69.7207 39.4924 69.7955 31.4102 74.7043 26.4106L78.4397 22.6059L74.7325 18.8301L90.4538 16.5426L88.2079 32.555L84.5007 28.7792L80.7653 32.5838C79.1594 34.2194 79.1349 36.8636 80.7102 38.5298Z" fill="#F5F5F5"/>
</svg>
